# xmcd
#
# Track frame offsets: 
#        150
#        14967
#        29770
#        43632
#        57527
#        71137
#        83912
#        98142
#        111675
#        126145
#        137525
#        150237
#        163582
#        178470
#        190440
#        203712
#        218627
#
# Disc length: 3061 seconds
#
# Revision: 3
# Processed by: cddbd v1.5.2PL0 Copyright (c) Steve Scherf et al.
# Submitted via: ExactAudioCopy v0.99pb4
#
DISCID=050bf311
DTITLE=Various Artist - Savoy 60th Anniversary - Timeless [CD 2)
DYEAR=2002
DGENRE=Jazz
TTITLE0=Lester Young - Jump, Lester, Jump
TTITLE1=Charlie Parker - Now's The Time
TTITLE2=Billy Eckstine - Oop Bop Sh'bam
TTITLE3=Ben Webster - I Surrender Dear
TTITLE4=Illinois Jacquet - Illinois Goes To Chicago
TTITLE5=Big Jay McNeely - The Decon's Hop
TTITLE6=Paul Williams - The Huckle-Buck
TTITLE7=Hal Singer - Cornbread
TTITLE8=George Searing - Moon Over Miami
TTITLE9=Erroll Garner - She's Funny That Way
TTITLE10=Marian McPartland - Love Is Here To Stay
TTITLE11=Milt Jackson - 'Round Midnight
TTITLE12=Eddie Jefferson - Body And Soul
TTITLE13=Joe Williams - Everyday (I Have The Blues)
TTITLE14=Gene Ammons - Trav'lin Light
TTITLE15=Little Jimmy Scott - When Did You Leave Heaven
TTITLE16=Big Maybelle - Say It Isn't So
EXTD=
EXTT0=
EXTT1=
EXTT2=
EXTT3=
EXTT4=
EXTT5=
EXTT6=
EXTT7=
EXTT8=
EXTT9=
EXTT10=
EXTT11=
EXTT12=
EXTT13=
EXTT14=
EXTT15=
EXTT16=
PLAYORDER=
